<svg width="250" height="118" viewBox="0 0 250 118" fill="none" xmlns="http://www.w3.org/2000/svg">
<path d="M6.89134 117.251C6.89134 117.251 -6.54607 33.1767 6.89134 16.6588C6.89134 16.6588 11.8304 -16.7079 48.3272 12.0834L52.5764 117.251H6.89134Z" fill="#fff3b0"/>
<path d="M26.7478 99.6823C26.7478 99.6823 32.4273 29.4211 12.8001 4.59753" stroke="#2F2E43" stroke-width="2" stroke-miterlimit="10"/>
<path d="M34.1598 116.836V78.2844C34.1598 78.2844 62.3833 28.5646 101.846 43.8472C101.846 43.8472 127.73 35.3684 134.519 69.3133C134.519 69.3133 154.315 64.6904 157.995 78.8825C157.995 78.8825 205.144 13.7731 227.538 78.8825C227.538 78.8825 247.883 67.3012 248.908 83.5824C249.932 99.8637 248.908 116.836 248.908 116.836H34.1598Z" fill="#fff3b0"/>
<path d="M200.555 116.948C200.555 116.948 206.234 69.235 186.607 52.3778" stroke="#2F2E43" stroke-width="2" stroke-miterlimit="10"/>
<path d="M115.378 107.74C115.378 107.74 121.057 60.0267 101.43 43.1695" stroke="#2F2E43" stroke-width="2" stroke-miterlimit="10"/>
</svg>
