<svg width="99" height="250" viewBox="0 0 99 250" fill="none" xmlns="http://www.w3.org/2000/svg">
<path d="M29.9637 76.7551L25.0122 96.3219L59.2026 95.8998L55.2899 78.0214L29.9637 76.7551Z" fill="#E29295"/>
<path d="M23.6391 143.605L16.2159 176.082L2.55344 241.104L8.88501 242.37L52.404 145.461L23.6391 143.605Z" fill="#E29295"/>
<path d="M37.931 151.003L51.6424 181.365L71.7785 242.37L80.2206 240.259L61.9709 135.099L37.931 151.003Z" fill="#E29295"/>
<path d="M26.9322 88.2658C26.9322 88.2658 11.6674 115.146 14.4511 144.839C14.4511 144.839 36.9555 161.879 73.1081 146.105L58.2261 86.7192L26.9322 88.2658Z" fill="#090814"/>
<path d="M1.49626 248.856C0.769449 248.26 0.377123 247.595 0.330243 246.879C0.276583 246.06 0.681469 245.181 1.53346 244.266C1.55391 244.003 1.81834 240.743 2.4076 240.159C2.3582 239.985 2.05805 238.828 2.55006 238.077C2.78184 237.723 3.15546 237.517 3.66053 237.464L3.68254 237.461L3.69343 237.481C3.70767 237.506 5.14152 240.028 7.29838 240.25C8.53494 240.376 9.77298 239.732 10.9782 238.334C11.0215 238.231 11.362 236.528 11.5818 235.401L11.5906 235.356L23.3427 241.611L30.2122 243.536C31.0756 243.778 31.6786 244.58 31.6786 245.487C31.6786 246.261 31.2337 246.977 30.5453 247.312L27.2155 248.933C25.8242 249.61 24.2727 249.968 22.729 249.968H4.66694C3.49672 249.968 2.37069 249.573 1.49626 248.856Z" fill="#090814"/>
<path d="M68.6108 248.856C67.884 248.26 67.4917 247.595 67.4448 246.879C67.3911 246.06 67.796 245.181 68.648 244.266C68.6684 244.003 68.9329 240.743 69.5221 240.159C69.4727 239.985 69.1726 238.828 69.6646 238.077C69.8964 237.723 70.27 237.517 70.7751 237.464L70.7971 237.461L70.808 237.481C70.8222 237.506 72.2561 240.028 74.4129 240.25C75.6495 240.376 76.8875 239.732 78.0927 238.334C78.136 238.231 78.4765 236.528 78.6963 235.401L78.7051 235.356L90.4572 241.611L97.3268 243.536C98.1902 243.778 98.7932 244.58 98.7932 245.487C98.7932 246.261 98.3483 246.977 97.6598 247.312L94.33 248.933C92.9387 249.61 91.3873 249.968 89.8435 249.968H71.7815C70.6113 249.968 69.4852 249.573 68.6108 248.856Z" fill="#090814"/>
<path d="M34.8765 16.0353C34.8765 8.41894 41.0507 2.24463 48.6671 2.24463C56.2835 2.24463 62.4579 8.41894 62.4579 16.0353C62.4579 22.2122 58.3965 27.44 52.7988 29.1956L50.1328 46.8145L36.5421 35.4889C36.5421 35.4889 39.4781 31.7491 41.0526 27.5323C37.3312 25.0626 34.8765 20.8364 34.8765 16.0353Z" fill="#E29295"/>
<path d="M35.248 29.649L51.4909 40.032L58.9882 53.2723C61.159 57.106 61.8922 61.5879 61.0561 65.9135L57.6115 83.7341H21.6962L27.3711 46.5547C28.0954 41.8093 29.9028 37.2946 32.6533 33.3604L35.248 29.649Z" fill="#6C63FF"/>
<path d="M30.4486 34.1548C30.4486 34.1548 31.0926 39.0407 37.059 39.2002C45.1276 39.416 49.1619 39.5239 49.1619 39.5239C49.1619 39.5239 38.9308 14.6251 43.1377 17.4301C47.3446 20.2352 58.563 8.47561 58.563 8.47561L61.8732 14.6838C61.8732 14.6838 69.7814 11.8201 61.017 4.80748C61.017 4.80748 50.5599 -3.27717 39.4583 1.57769C28.3568 6.43255 30.4486 34.1548 30.4486 34.1548Z" fill="#090814"/>
<path d="M38.027 122.628L37.7371 109.264L45.5402 109.094L45.8302 122.459C47.2861 123.811 48.2471 125.911 48.2988 128.292C48.3892 132.457 45.6675 135.895 42.2199 135.97C38.7722 136.045 35.9041 132.728 35.8137 128.562C35.762 126.181 36.6312 124.042 38.027 122.628Z" fill="#E29295"/>
<path d="M48.7997 55.7376V120.517H35.248L31.2429 56.2845" fill="#6C63FF"/>
</svg>
