<svg width="298" height="617" viewBox="0 0 298 617" fill="none" xmlns="http://www.w3.org/2000/svg">
<path d="M145.576 616.251L131.998 280.196L74.2921 174.967H94.2816C94.2816 174.967 98.5898 188.978 105.144 205.863C110.215 218.928 129.967 211.873 125.527 198.581C119.963 181.92 111.773 165.915 99.7508 156.297L109.934 117.931C109.934 117.931 110.087 118.351 110.373 119.141C123.689 155.917 168.833 168.197 199.723 144.204C204.503 140.492 209.647 137.628 215.163 135.93L225.347 190.242C225.347 190.242 194.078 190.242 174.867 218.675C163.584 235.375 188.116 252.776 200.439 236.828C206.201 229.371 212.309 219.713 218.558 207.215L235.53 163.086V227.32L218.558 230.976L164.246 298.866L159.354 616.251H145.576Z" fill="#2F2E43"/>
<path d="M113.156 28.737C113.156 28.737 -66.5792 47.6737 28.4665 200.426C28.4665 200.426 18.283 258.132 48.8334 241.16C48.8334 241.16 59.0169 271.71 69.2004 251.343C69.2004 251.343 120.177 271.987 137.519 261.316C137.519 261.316 52.2279 142.719 133.696 139.325C133.696 139.325 160.852 200.426 177.824 190.242C194.797 180.059 207.598 151.57 207.598 151.57L225.347 244.554C225.347 244.554 276.264 258.132 259.292 197.031C259.292 197.031 316.998 186.848 289.842 129.141C289.842 129.141 300.026 85.0131 266.081 61.2517C266.081 61.2517 218.212 -51.3005 113.156 28.737Z" fill="#6C63FF"/>
</svg>
